{"title":"The Incredible Hulk [BDrip 1080p - H264 - Ita Eng Dts 5.1 - Subs","uid":12124581,"size":8818523228,"categoryP":"video","categoryS":"hd___movies","magnet":"?xt=urn:btih:c59aedb48237e700cec9d0adca8201fc44eaafa3&amp;dn=The+Incredible+Hulk+%5BBDrip+1080p+-+H264+-+Ita+Eng+Dts+5.1+-+Subs&amp;tr=udp%3A%2F%2Ftracker.openbittorrent.com%3A80&amp;tr=udp%3A%2F%2Fopen.demonii.com%3A1337&amp;tr=udp%3A%2F%2Ftracker.coppersurfer.tk%3A6969&amp;tr=udp%3A%2F%2Fexodus.desync.com%3A6969","seeders":0,"leechers":0,"uploader":"franciteam","files":1,"time":1436903812,"description":"\n[URL=http://imgur.com/zxBy497][IMG]http://i.imgur.com/zxBy497l.jpg[/IMG][/URL]\n[URL=http://imgur.com/4USVGjh][IMG]http://i.imgur.com/4USVGjhl.jpg[/IMG][/URL]\n[URL=http://imgur.com/7HpZ6iI][IMG]http://i.imgur.com/7HpZ6iIl.jpg[/IMG][/URL]\n[URL=http://imgur.com/pxkwdO2][IMG]http://i.imgur.com/pxkwdO2l.jpg[/IMG][/URL]\n\nGeneral\nUnique ID                                : 250163218904380078431041598506089771047 (0xBC33AEF5162A441B9B2042A654C6F027)\nComplete name                            : C:UsersUtenteDesktopMieLe mie releasefilml'incredibile hulkL.Incredibile.Hulk-The.Incredible.Hulk.2008.DTS.ITA.ENG.1080p.BluRay.x264-BLUWORLD.mkv\nFormat                                   : Matroska\nFormat version                           : Version 4 / Version 2\nFile size                                : 8.21 GiB\nDuration                                 : 1h 52mn\nOverall bit rate mode                    : Variable\nOverall bit rate                         : 10.5 Mbps\nEncoded date                             : UTC 2015-06-30 14:07:03\nWriting application                      : mkvmerge v8.1.0 ('Psychedelic Postcard') 64bit\nWriting library                          : libebml v1.3.1 + libmatroska v1.4.2\nDURATION                                 : 01:44:08.366000000\nNUMBER_OF_FRAMES                         : 830\nNUMBER_OF_BYTES                          : 25420\n_STATISTICS_WRITING_APP                  : mkvmerge v8.1.0 ('Psychedelic Postcard') 64bit\n_STATISTICS_WRITING_DATE_UTC             : 2015-06-30 14:07:03\n_STATISTICS_TAGS                         : BPS DURATION NUMBER_OF_FRAMES NUMBER_OF_BYTES\n\nVideo\nID                                       : 1\nFormat                                   : AVC\nFormat/Info                              : Advanced Video Codec\nFormat profile                           : &lt;a class=&quot;__cf_email__&quot; href=&quot;/cdn-cgi/l/email-protection&quot; data-cfemail=&quot;e6ae8f818ea6aad2c8d7&quot;&gt;[email&amp;#160;protected]&lt;/a&gt;&lt;script data-cfhash='f9e31' type=&quot;text/javascript&quot;&gt;\n/* &lt;![CDATA[ */!function(){try{var t=&quot;currentScript&quot;in document?document.currentScript:function(){for(var t=document.getElementsByTagName(&quot;script&quot;),e=t.length;e--;)if(t[e].getAttribute(&quot;data-cfhash&quot;))return t[e]}();if(t&amp;&amp;t.previousSibling){var e,r,n,i,c=t.previousSibling,a=c.getAttribute(&quot;data-cfemail&quot;);if(a){for(e=&quot;&quot;,r=parseInt(a.substr(0,2),16),n=2;a.length-n;n+=2)i=parseInt(a.substr(n,2),16)^r,e+=String.fromCharCode(i);e=document.createTextNode(e),c.parentNode.replaceChild(e,c)}t.parentNode.removeChild(t);}}catch(u){}}()/* ]]&gt; */&lt;/script&gt;\nFormat settings, CABAC                   : Yes\nFormat settings, ReFrames                : 5 frames\nCodec ID                                 : V_MPEG4/ISO/AVC\nDuration                                 : 1h 52mn\nBit rate mode                            : Variable\nBit rate                                 : 8 200 Kbps\nMaximum bit rate                         : 62.5 Mbps\nWidth                                    : 1 920 pixels\nHeight                                   : 816 pixels\nDisplay aspect ratio                     : 2.35:1\nFrame rate mode                          : Constant\nFrame rate                               : 23.976 fps\nColor space                              : YUV\nChroma subsampling                       : 4:2:0\nBit depth                                : 8 bits\nScan type                                : Progressive\nBits/(Pixel*Frame)                       : 0.218\nStream size                              : 6.26 GiB (76%)\nWriting library                          : x264 core 140 r2377 1ca7bb9\nEncoding settings                        : cabac=1 / ref=5 / deblock=1:0:0 / analyse=0x3:0x113 / me=umh / subme=8 / psy=1 / psy_rd=1.00:0.00 / mixed_ref=1 / me_range=16 / chroma_me=1 / trellis=1 / 8x8dct=1 / cqm=0 / deadzone=21,11 / fast_pskip=1 / chroma_qp_offset=-2 / threads=12 / lookahead_threads=2 / sliced_threads=0 / nr=0 / decimate=1 / interlaced=0 / bluray_compat=0 / constrained_intra=0 / bframes=3 / b_pyramid=0 / b_adapt=2 / b_bias=0 / direct=3 / weightb=1 / open_gop=0 / weightp=2 / keyint=240 / keyint_min=24 / scenecut=40 / intra_refresh=0 / rc_lookahead=50 / rc=2pass / mbtree=1 / bitrate=8200 / ratetol=1.0 / qcomp=0.60 / qpmin=0 / qpmax=69 / qpstep=4 / cplxblur=20.0 / qblur=0.5 / vbv_maxrate=62500 / vbv_bufsize=62500 / nal_hrd=vbr / filler=0 / ip_ratio=1.40 / aq=1:1.00\nDefault                                  : Yes\nForced                                   : No\n\nAudio #1\nID                                       : 2\nFormat                                   : DTS\nFormat/Info                              : Digital Theater Systems\nMode                                     : 16\nFormat settings, Endianness              : Big\nCodec ID                                 : A_DTS\nDuration                                 : 1h 52mn\nBit rate mode                            : Constant\nBit rate                                 : 768 Kbps\nChannel(s)                               : 6 channels\nChannel positions                        : Front: L C R, Side: L R, LFE\nSampling rate                            : 48.0 KHz\nBit depth                                : 24 bits\nCompression mode                         : Lossy\nStream size                              : 617 MiB (7%)\nTitle                                    : Ita. DTS 768 Kbps\nLanguage                                 : Italian\nDefault                                  : Yes\nForced                                   : No\n\nAudio #2\nID                                       : 3\nFormat                                   : DTS\nFormat/Info                              : Digital Theater Systems\nMode                                     : 16\nFormat settings, Endianness              : Big\nCodec ID                                 : A_DTS\nDuration                                 : 1h 52mn\nBit rate mode                            : Constant\nBit rate                                 : 1 509 Kbps\nChannel(s)                               : 6 channels\nChannel positions                        : Front: L C R, Side: L R, LFE\nSampling rate                            : 48.0 KHz\nBit depth                                : 24 bits\nCompression mode                         : Lossy\nStream size                              : 1.18 GiB (14%)\nTitle                                    : Eng. DTS 1510 Kbps\nLanguage                                 : English\nDefault                                  : No\nForced                                   : No\n\nText #1\nID                                       : 4\nFormat                                   : UTF-8\nCodec ID                                 : S_TEXT/UTF8\nCodec ID/Info                            : UTF-8 Plain Text\nTitle                                    : Sub. Ita. Forced\nLanguage                                 : Italian\nDefault                                  : Yes\nForced                                   : Yes\n\nText #2\nID                                       : 5\nFormat                                   : UTF-8\nCodec ID                                 : S_TEXT/UTF8\nCodec ID/Info                            : UTF-8 Plain Text\nTitle                                    : Sub. Ita.\nLanguage                                 : Italian\nDefault                                  : No\nForced                                   : No\n\nText #3\nID                                       : 6\nFormat                                   : UTF-8\nCodec ID                                 : S_TEXT/UTF8\nCodec ID/Info                            : UTF-8 Plain Text\nTitle                                    : Sub. Eng. Not Hearing\nLanguage                                 : English\nDefault                                  : No\nForced                                   : No","torrent":{"xt":"urn:btih:c59aedb48237e700cec9d0adca8201fc44eaafa3","amp;dn":"The+Incredible+Hulk+%5BBDrip+1080p+-+H264+-+Ita+Eng+Dts+5.1+-+Subs","amp;tr":["udp%3A%2F%2Ftracker.openbittorrent.com%3A80","udp%3A%2F%2Fopen.demonii.com%3A1337","udp%3A%2F%2Ftracker.coppersurfer.tk%3A6969","udp%3A%2F%2Fexodus.desync.com%3A6969"],"infoHash":"c59aedb48237e700cec9d0adca8201fc44eaafa3","infoHashBuffer":{"type":"Buffer","data":[197,154,237,180,130,55,231,0,206,201,208,173,202,130,1,252,68,234,175,163]},"announce":[],"urlList":[]}}